<svg xmlns="http://www.w3.org/2000/svg" xmlns:xlink="http://www.w3.org/1999/xlink" viewBox="0 0 171.94 92.06"><defs><style>.cls-1{fill:#f4b728;}.cls-2{fill:#edeef0;}.cls-3{fill:#f3aa16;stroke-width:3.38px;}.cls-3,.cls-4,.cls-9{stroke:#00662f;stroke-miterlimit:10;}.cls-4,.cls-6{font-size:21.62px;}.cls-4{fill:none;stroke-width:3.38px;}.cls-21,.cls-4,.cls-6,.cls-8{font-family:Insaniburger, Insaniburger;}.cls-5{fill:#fcec2a;}.cls-6{fill:#fff;}.cls-7{letter-spacing:-0.11em;}.cls-8{font-size:15.54px;}.cls-13,.cls-8{fill:#00662f;}.cls-11,.cls-9{fill:#f3cc2f;}.cls-9{stroke-width:4.05px;}.cls-10{fill:#cd6915;}.cls-12,.cls-17{fill:#f2e393;}.cls-12{opacity:0.5;}.cls-14{clip-path:url(#clip-path);}.cls-15{opacity:0.2;}.cls-16{fill:#f4ac23;}.cls-18{clip-path:url(#clip-path-2);}.cls-19{fill:#5b5b5f;}.cls-20,.cls-21{fill:#b40909;}.cls-21{font-size:9.6px;}.cls-22{letter-spacing:-0.12em;}</style><clipPath id="clip-path"><path class="cls-1" d="M56.65,49.55a5,5,0,0,1,2.06.44.41.41,0,0,0,.19,0l5.33,0a.94.94,0,0,1,0,1.88l-3.83,0a.47.47,0,0,0-.47.47.45.45,0,0,0,.46.47l3.83,0A1.87,1.87,0,0,0,66.1,51a2.09,2.09,0,0,0,0-.25c2.7-2.73,3.08-3.12,3.09-3.14a1,1,0,0,1,1.33-.1.94.94,0,0,1,.1,1.32l-4.25,5a3.2,3.2,0,0,1-2.28.9l-6.24,0a2.35,2.35,0,0,0-1.63.65l-.4.38-3.66-3.7A4.85,4.85,0,0,1,56.65,49.55Z"/></clipPath><clipPath id="clip-path-2"><path class="cls-1" d="M50.74,52.63a.47.47,0,0,1,.58-.07c.09,0-.15-.16,4,4.08a.46.46,0,0,1,0,.66l-2,1.9-4.58-4.68Z"/></clipPath></defs><title>CHAT_1</title><g id="Capa_2" data-name="Capa 2"><g id="Capa_1-2" data-name="Capa 1"><rect class="cls-2" y="18.41" width="141.55" height="59.04" rx="29.52" ry="29.52"/><path class="cls-2" d="M119.1,80.84a102.21,102.21,0,0,0,11.57.9c24.7,0,41.27-18.37,41.27-40S151.23,2.64,130.67,2.64C105.94,2.64,86,20.15,86,41.76c0,12.52,4.77,23.14,13.76,30.8v19.5Z"/><path class="cls-3" d="M50.74,52.73a.47.47,0,0,1,.58-.06c.09,0-.15-.17,4,4.07a.47.47,0,0,1,0,.67l-2,1.89-4.58-4.67Z"/><path class="cls-3" d="M56.65,49.65a5.19,5.19,0,0,1,2.06.45.58.58,0,0,0,.19,0l5.33,0a.94.94,0,0,1,0,1.88l-3.83,0a.47.47,0,0,0-.47.47.45.45,0,0,0,.46.47l3.83,0a1.87,1.87,0,0,0,1.89-1.87,1.93,1.93,0,0,0,0-.24l3.09-3.14A.94.94,0,1,1,70.61,49l-4.25,5a3.29,3.29,0,0,1-2.28.9l-6.24,0a2.3,2.3,0,0,0-1.63.64l-.4.39-3.66-3.71A4.87,4.87,0,0,1,56.65,49.65Z"/><text class="cls-4" transform="translate(18.12 43.93)">PRE</text><path class="cls-5" d="M50.74,52.73a.47.47,0,0,1,.58-.06c.09,0-.15-.17,4,4.07a.47.47,0,0,1,0,.67l-2,1.89-4.58-4.67Z"/><path class="cls-5" d="M56.65,49.65a5.19,5.19,0,0,1,2.06.45.58.58,0,0,0,.19,0l5.33,0a.94.94,0,0,1,0,1.88l-3.83,0a.47.47,0,0,0-.47.47.45.45,0,0,0,.46.47l3.83,0a1.87,1.87,0,0,0,1.89-1.87,1.93,1.93,0,0,0,0-.24l3.09-3.14A.94.94,0,1,1,70.61,49l-4.25,5a3.29,3.29,0,0,1-2.28.9l-6.24,0a2.3,2.3,0,0,0-1.63.64l-.4.39-3.66-3.71A4.87,4.87,0,0,1,56.65,49.65Z"/><text class="cls-6" transform="translate(18.12 43.93)">PRE</text><text class="cls-4" transform="translate(68.79 43.93)"><tspan class="cls-7">T</tspan><tspan x="10.09" y="0">A</tspan></text><text class="cls-6" transform="translate(68.79 43.93)"><tspan class="cls-7">T</tspan><tspan x="10.09" y="0">A</tspan></text><text class="cls-8" transform="translate(73.41 54.03) scale(0.7)">RAPI</text><path id="_Trazado_compuesto_" data-name="&lt;Trazado compuesto&gt;" class="cls-9" d="M61.4,34.19c-1.65-.41-2.81-.7-3.35-1.37a1.66,1.66,0,0,1-.36-1.11c0-1.06.74-1.91,2.52-1.91a6.56,6.56,0,0,1,.79.05A2.57,2.57,0,0,1,63.33,32l3.55-1a5.24,5.24,0,0,0-3.33-3.75,7.45,7.45,0,0,0-1.79-.44V24.25H58.67v2.56c-3,.41-4.82,2.16-4.81,5.09a4.43,4.43,0,0,0,1.51,3.6,7.81,7.81,0,0,0,3.15,1.43c2.34.61,4.55.79,4.55,2.79,0,1.34-1,2-2.48,2a3,3,0,0,1-3.28-2.58l-3.7,1c.57,3.11,3,4.29,5.37,4.59v2.56h3.09V44.74c3-.44,5-2.17,5-5.19v0C67.08,35.64,63.87,34.8,61.4,34.19Z"/><g id="_Grupo_" data-name="&lt;Grupo&gt;"><path id="_Trazado_compuesto_2" data-name="&lt;Trazado compuesto&gt;" class="cls-10" d="M62.9,45.57v2.56H59.82L59,47.31l.83-1.73c-2.4-.3-4.8-1.48-5.37-4.59l2.87-1.84.84.83a3,3,0,0,0,3.27,2.58c1.47,0,2.49-.66,2.49-2,0-2-2.22-2.18-4.56-2.79s-4.64-1.61-4.65-5c0-2.93,1.79-4.68,4.81-5.09l-.84-3.39h3.08l.84.83v2.59c2.75.36,4.49,1.79,5.12,4.19l-3.54,1L63.33,32l.47-.13a3,3,0,0,0-2.75-1.24c-1.78,0-2.52.85-2.52,1.91,0,1.56,1.34,1.89,3.71,2.48s5.67,1.45,5.69,5.31C67.93,43.38,65.92,45.13,62.9,45.57Z"/><path id="_Trazado_compuesto_3" data-name="&lt;Trazado compuesto&gt;" class="cls-11" d="M61.4,34.19c-1.65-.41-2.81-.7-3.35-1.37a1.66,1.66,0,0,1-.36-1.11c0-1.06.74-1.91,2.52-1.91a6.56,6.56,0,0,1,.79.05A2.57,2.57,0,0,1,63.33,32l3.55-1a5.24,5.24,0,0,0-3.33-3.75,7.45,7.45,0,0,0-1.79-.44V24.25H58.67v2.56c-3,.41-4.82,2.16-4.81,5.09a4.43,4.43,0,0,0,1.51,3.6,7.81,7.81,0,0,0,3.15,1.43c2.34.61,4.55.79,4.55,2.79,0,1.34-1,2-2.48,2a3,3,0,0,1-3.28-2.58l-3.7,1c.57,3.11,3,4.29,5.37,4.59v2.56h3.09V44.74c3-.44,5-2.17,5-5.19v0C67.08,35.64,63.87,34.8,61.4,34.19Z"/></g><path id="_Trazado_" data-name="&lt;Trazado&gt;" class="cls-12" d="M63.55,27.28,61,29.85a6.56,6.56,0,0,0-.79-.05c-1.78,0-2.52.85-2.52,1.91a1.66,1.66,0,0,0,.36,1.11l-2.68,2.69a4.43,4.43,0,0,1-1.51-3.6c0-2.93,1.8-4.68,4.81-5.09V24.44l.17-.18h2.91v2.59A7.45,7.45,0,0,1,63.55,27.28Z"/><path id="_Trazado_2" data-name="&lt;Trazado&gt;" class="cls-12" d="M67.09,39.55c0,3-2,4.75-5,5.19V47.3H59.38Z"/><ellipse class="cls-13" cx="60.34" cy="39.52" rx="1.32" ry="0.89"/><circle class="cls-13" cx="60.63" cy="32.02" r="0.56"/><path class="cls-13" d="M51,33.68s1.1,3.42.76,5.36S56,37.74,56,37.74s-3.12-3.55-3.38-4.9S51,33.68,51,33.68Z"/><path class="cls-13" d="M67.09,44.49s3,1.77,5.74,0c0,0-1.31-8.11-1.1-9.79s-2.74-.43-3.21-1.57-2.28-.5-2.7-.25-.59,1.06,0,1.27,3.46,4.77,2.58,7.34S67.09,44.49,67.09,44.49Z"/><polygon class="cls-13" points="78.15 33.89 78.15 39.89 81.74 33.89 78.15 33.89"/><path class="cls-1" d="M56.65,49.55a5,5,0,0,1,2.06.44.41.41,0,0,0,.19,0l5.33,0a.94.94,0,0,1,0,1.88l-3.83,0a.47.47,0,0,0-.47.47.45.45,0,0,0,.46.47l3.83,0A1.87,1.87,0,0,0,66.1,51a2.09,2.09,0,0,0,0-.25c2.7-2.73,3.08-3.12,3.09-3.14a1,1,0,0,1,1.33-.1.94.94,0,0,1,.1,1.32l-4.25,5a3.2,3.2,0,0,1-2.28.9l-6.24,0a2.35,2.35,0,0,0-1.63.65l-.4.38-3.66-3.7A4.85,4.85,0,0,1,56.65,49.55Z"/><g class="cls-14"><g class="cls-15"><path id="_Trazado_3" data-name="&lt;Trazado&gt;" class="cls-16" d="M80.11,40,51,69a20.79,20.79,0,0,1-3.44-4.51l28-28A20.79,20.79,0,0,1,80.11,40Z"/><path id="_Trazado_4" data-name="&lt;Trazado&gt;" class="cls-17" d="M76.51,37.07,48.15,65.43c-.19-.3-.37-.6-.55-.91a20.34,20.34,0,0,1-1.89-4.59h0L71,34.63a20.61,20.61,0,0,1,4.6,1.89Z"/><path id="_Trazado_5" data-name="&lt;Trazado&gt;" class="cls-17" d="M82,46.65,57.7,71a19.74,19.74,0,0,1-4.56-1.53L80.5,42.09A20.39,20.39,0,0,1,82,46.65Z"/><path id="_Trazado_6" data-name="&lt;Trazado&gt;" class="cls-17" d="M69.35,34.25l-24,24c-.1-.56-.19-1.13-.24-1.71L67.64,34A16.38,16.38,0,0,1,69.35,34.25Z"/></g></g><path class="cls-1" d="M50.74,52.63a.47.47,0,0,1,.58-.07c.09,0-.15-.16,4,4.08a.46.46,0,0,1,0,.66l-2,1.9-4.58-4.68Z"/><g class="cls-18"><g class="cls-15"><path id="_Trazado_7" data-name="&lt;Trazado&gt;" class="cls-16" d="M80.11,40,51,69a20.79,20.79,0,0,1-3.44-4.51l28-28A20.79,20.79,0,0,1,80.11,40Z"/><path id="_Trazado_8" data-name="&lt;Trazado&gt;" class="cls-17" d="M76.51,37.07,48.15,65.43c-.19-.3-.37-.6-.55-.91a20.34,20.34,0,0,1-1.89-4.59h0L71,34.63a20.61,20.61,0,0,1,4.6,1.89Z"/><path id="_Trazado_9" data-name="&lt;Trazado&gt;" class="cls-17" d="M82,46.65,57.7,71a19.74,19.74,0,0,1-4.56-1.53L80.5,42.09A20.39,20.39,0,0,1,82,46.65Z"/><path id="_Trazado_10" data-name="&lt;Trazado&gt;" class="cls-17" d="M69.35,34.25l-24,24c-.1-.56-.19-1.13-.24-1.71L67.64,34A16.38,16.38,0,0,1,69.35,34.25Z"/></g></g><path class="cls-19" d="M106.77,7.45l-.17,2.32.2.06c.33-.6.67-1.19,1-1.8s.62-1.22.84-1.65c.5-.27.88-.44,1.23-.66.94-.59,1.85-1.21,2.8-1.79A13,13,0,0,0,114,3.3a3.08,3.08,0,0,1,2.69-.69,3.91,3.91,0,0,0,2-.59c2.78-1.3,5.6-2.38,8.76-1.9l.59.11-1.61,1.14A39.36,39.36,0,0,0,138.1,1l0,.52-1.22.73.1.27,5.88.14a1.54,1.54,0,0,1,.37,0c3.34.72,6.93.83,9.45,3.67a12.71,12.71,0,0,1,.82,1.11l-.21.27-3.57-1.81-.25.38c4.26,4,9.2,7.44,11.41,13.28l-1.39.05L161.07,21c-2,1.57-1.95,1.81.36,2.7a3.07,3.07,0,0,1,2,2.67l-2-.3.07.68a1.83,1.83,0,0,0-.58-.22,4.06,4.06,0,0,0-.76.14,2,2,0,0,0,.24.72,7,7,0,0,0,1,.91A5,5,0,0,1,163,32.47l-2-1.77-.3.21a12.79,12.79,0,0,1,1,9.18c-.53-2.18-1.05-4.33-3.27-6l.68,2.27-.32.24L156,33a6.9,6.9,0,0,0,1.79,4.92l-2.9-2.71c0,2.38,0,4.7-.09,7-.05,1,.3,1.48,1.28,1.56a4,4,0,0,1,.68.26c-.51,1.37-.26,3-1.74,3.94-.35.22-.47.83-.64,1.28-.63,1.71-1.22,3.43-1.87,5.13a7.56,7.56,0,0,1-7.84,5.18,39.26,39.26,0,0,1-6.38-.76,9.14,9.14,0,0,1-6.92-6c-.43-1.05-.74-2.14-1.11-3.21a10.76,10.76,0,0,0-.61-1.58c-.94-1.69-2.58-1.75-3.65-.13a7.17,7.17,0,0,0-.71,1.54c-2.14,5.81-6.3,8.54-12.48,8.05a22.17,22.17,0,0,1-4.63-.9,6.92,6.92,0,0,1-5-5.84c-.33-1.91-.65-3.83-1-5.74-.06-.35-.14-.85-.38-1-1.51-.82-.9-2.26-1-3.45,0-.23.67-.69,1.08-.78.81-.18,1-.43.83-1.31a21.16,21.16,0,0,1,.51-8.07,10,10,0,0,0-.77-6.45c-.28-.55-.94-.91-1.53-1.45.18-1.62.12-3.33-1.76-3.87l3-4.59,3.49,1.42c0-1.31.09-2.37,0-3.42A5.74,5.74,0,0,1,106.77,7.45Zm-3.49,31.94,1.49-.1c6.9-.47,13.69-.13,20.06,3a8,8,0,0,0,5.67.6A43,43,0,0,1,150,42.49c1.44.3,2.9.54,4.43.82a8.61,8.61,0,0,1-.08-1.34,21.14,21.14,0,0,0-1.86-10.64,1.74,1.74,0,0,0-.91-.88c-1.28-.49-2.59-.92-3.91-1.29a11.69,11.69,0,0,0-2.06-.17l1.56,1.6a20.48,20.48,0,0,0-4.53-1c-3.4,0-6.79.36-10.5.59l1.42,1a4.52,4.52,0,0,1-1.74-.1,22.06,22.06,0,0,0-4-.75c-3.84,0-7.4-1.29-11-2.24a6,6,0,0,1-4.12-3.32c-.37-.78-.87-1.49-1.31-2.24l-.36.14,1,5-.23.05-1.27-1.37L107,30.45c-.31-.54-.81-.82-1.41.05-.07.09-.22.24-.27.21-1.27-.55-1.06.48-1.38,1.15A12.27,12.27,0,0,0,103.28,39.39ZM143,42.81l0,.14a22.11,22.11,0,0,0-3-.19,34.35,34.35,0,0,0-5.74.69c-2.16.53-3,1.92-2.74,4.09a26.56,26.56,0,0,0,1.13,5.07,8.24,8.24,0,0,0,5.3,5.3,17,17,0,0,0,7.55.79,6.29,6.29,0,0,0,5.49-3.64,21.23,21.23,0,0,0,1.61-5.17c.52-3.32-1.12-5.58-4.4-6.31C146.45,43.21,144.7,43.06,143,42.81ZM112.52,56.53c6,.49,9.42-1.68,11.37-7.22.2-.57.35-1.16.51-1.74.74-2.74.08-4.34-2.55-5.31a29.66,29.66,0,0,0-13.76-1.4,4.72,4.72,0,0,0-4.24,4.62,16.62,16.62,0,0,0,.28,4.45c.82,4.1,2.8,5.88,6.93,6.49C111.54,56.49,112,56.5,112.52,56.53ZM101.33,41.36c1.1,1,2,1,2.93.19A2.51,2.51,0,0,0,101.33,41.36Zm54.32,4a2,2,0,0,0-2.94-.25A2.58,2.58,0,0,0,155.65,45.41Z"/><path class="cls-19" d="M101.33,41.36a2.51,2.51,0,0,1,2.93.19C103.33,42.36,102.43,42.32,101.33,41.36Z"/><path class="cls-19" d="M155.65,45.41a2.58,2.58,0,0,1-2.94-.25A2,2,0,0,1,155.65,45.41Z"/><g id="_Grupo_2" data-name="&lt;Grupo&gt;"><path id="_Trazado_compuesto_4" data-name="&lt;Trazado compuesto&gt;" class="cls-20" d="M114.15,47.6a3.56,3.56,0,0,1-1.73-.87.91.91,0,0,1-.14-.61c0-.56.47-1,1.42-.91a2.37,2.37,0,0,1,.41.06,1.37,1.37,0,0,1,1.16,1.24l1.93-.37A2.79,2.79,0,0,0,115.58,44a3.71,3.71,0,0,0-.94-.31l.1-1.38-1.64-.12-.1,1.36a2.63,2.63,0,0,0-2.77,2.51,2.36,2.36,0,0,0,.66,2,4.25,4.25,0,0,0,1.62.88c1.22.42,2.38.61,2.31,1.67-.06.71-.63,1-1.41,1a1.62,1.62,0,0,1-1.64-1.51l-2,.39a3,3,0,0,0,2.67,2.66l-.1,1.36,1.64.12.1-1.36A2.75,2.75,0,0,0,117,50.68a0,0,0,0,1,0,0C117.12,48.6,115.44,48,114.15,47.6Z"/></g><g id="_Grupo_3" data-name="&lt;Grupo&gt;"><path id="_Trazado_compuesto_5" data-name="&lt;Trazado compuesto&gt;" class="cls-20" d="M143.61,49.76c-.87-.29-1.47-.49-1.73-.87a.84.84,0,0,1-.15-.6c0-.56.47-1,1.42-.91a2.65,2.65,0,0,1,.42.06,1.36,1.36,0,0,1,1.15,1.23l1.93-.37A2.79,2.79,0,0,0,145,46.17a4.15,4.15,0,0,0-.94-.31l.1-1.37-1.64-.13-.1,1.36a2.63,2.63,0,0,0-2.77,2.52,2.38,2.38,0,0,0,.66,2,4.21,4.21,0,0,0,1.62.89c1.22.42,2.39.61,2.31,1.67-.05.71-.63,1-1.41,1a1.59,1.59,0,0,1-1.63-1.5l-2,.38a3,3,0,0,0,2.67,2.67l-.1,1.35,1.65.12.1-1.35a2.76,2.76,0,0,0,2.88-2.56,0,0,0,0,0,0,0C146.57,50.76,144.89,50.19,143.61,49.76Z"/></g><path class="cls-20" d="M104.65,64.6c.49.38.91.72,1.35,1a4.11,4.11,0,0,0,4.7.39c1.5-.83,2.9-1.83,4.35-2.75a29.29,29.29,0,0,1,2.6-1.6,5.64,5.64,0,0,1,5.87.3,28.85,28.85,0,0,1,2.39,1.9c.24.19.47.4.72.57a1.47,1.47,0,0,0,1.73,0c.48-.31.95-.66,1.4-1a6.23,6.23,0,0,1,8.25,0c1.43,1.12,2.74,2.4,4.11,3.59a15.37,15.37,0,0,0,1.58,1.21,4.22,4.22,0,0,0,4.41.27c.63-.3,1.22-.66,1.89-1-1.62,4.28-4.07,7.58-8.85,8.41-6.18,1.07-10.92-1-14.07-6.61l-.41.47a12.42,12.42,0,0,1-7.32,4.78,13.71,13.71,0,0,1-6.46-.33c-4.62-1.24-7.13-4.41-8.16-8.94A5,5,0,0,1,104.65,64.6Z"/><text class="cls-21" transform="translate(33.83 70.87)">CH<tspan class="cls-22" x="11.72" y="0">A</tspan><tspan x="16.79" y="0">T EN LÍNEA</tspan></text></g></g></svg>