<svg xmlns="http://www.w3.org/2000/svg" xmlns:xlink="http://www.w3.org/1999/xlink" viewBox="0 0 1179.5 478.4"><defs><style>.cls-1{fill:#336535;}.cls-2{fill:#fff;}.cls-3{font-size:140.18px;font-family:SymphonyBlack, Symphony Black;}.cls-3,.cls-4{fill:#156435;}.cls-5{fill:url(#Degradado_sin_nombre_23);}.cls-6{fill:url(#Degradado_sin_nombre_23-2);}.cls-7{fill:url(#Degradado_sin_nombre_23-3);}.cls-8{fill:url(#Degradado_sin_nombre_23-4);}.cls-9{fill:url(#Degradado_sin_nombre_23-5);}.cls-10{fill:url(#Degradado_sin_nombre_23-6);}</style><linearGradient id="Degradado_sin_nombre_23" x1="513.81" y1="341.46" x2="844.15" y2="341.46" gradientUnits="userSpaceOnUse"><stop offset="0" stop-color="#e0b954"/><stop offset="1" stop-color="#dbb03f"/></linearGradient><linearGradient id="Degradado_sin_nombre_23-2" x1="806.74" y1="151.43" x2="983.92" y2="151.43" xlink:href="#Degradado_sin_nombre_23"/><linearGradient id="Degradado_sin_nombre_23-3" x1="958.24" y1="151.27" x2="1157.13" y2="151.27" xlink:href="#Degradado_sin_nombre_23"/><linearGradient id="Degradado_sin_nombre_23-4" x1="0" y1="152.09" x2="165.56" y2="152.09" xlink:href="#Degradado_sin_nombre_23"/><linearGradient id="Degradado_sin_nombre_23-5" x1="179.07" y1="151.77" x2="350.77" y2="151.77" xlink:href="#Degradado_sin_nombre_23"/><linearGradient id="Degradado_sin_nombre_23-6" x1="364.38" y1="151.77" x2="497.64" y2="151.77" xlink:href="#Degradado_sin_nombre_23"/></defs><title>Recurso 2</title><g id="Capa_2" data-name="Capa 2"><g id="Capa_1-2" data-name="Capa 1"><path id="_Trazado_" data-name="&lt;Trazado&gt;" class="cls-1" d="M798,145.82c0,2.48-.06,5-.22,7.41A139,139,0,0,1,668.22,284.54l-1.89.12q-3.69.21-7.43.21A138.88,138.88,0,0,1,520.37,157.74c-.35-3.93-.52-7.89-.52-11.92,0-3.69.13-7.33.42-10.94a136.83,136.83,0,0,1,3.54-22.17,139.29,139.29,0,0,1,102-102A137,137,0,0,1,648,7.18c3.6-.29,7.25-.42,10.93-.42,3.13,0,6.27.11,9.32.3.87.06,1.74.12,2.61.22a138,138,0,0,1,57.51,18A138.79,138.79,0,0,1,798,145.82Z"/><g id="_Grupo_" data-name="&lt;Grupo&gt;"><path id="_Trazado_compuesto_" data-name="&lt;Trazado compuesto&gt;" class="cls-2" d="M671.81,124.79c-20.81-5.2-35.29-8.86-42.09-17.33-2.94-3.61-4.46-8.11-4.46-14,0-13.29,9.39-23.87,31.69-23.87a63.47,63.47,0,0,1,9.89.72c17.07,2.64,26.23,12.47,29.25,27.06l44.58-12.13c-5.95-22.9-20-38.8-41.6-47.17a98.58,98.58,0,0,0-22.55-5.65V0H637.79V32.09c-37.94,5.08-60.64,27-60.64,63.75,0,21.75,7.59,35.82,18.82,45.38,10.95,9.31,25.36,14.34,39.48,18,29.34,7.81,57.1,10.18,57.1,35.22,0,16.8-12.89,25-31.29,25-26.21,0-38.73-16-41.07-32.46l-46.55,12.52c7,39.1,37.16,54,67.28,57.9v32.06h38.74V257.42c37.71-5.45,63.07-27.13,63.35-65.05,0-.22,0-.44,0-.67C743,143.18,702.73,132.63,671.81,124.79Z"/></g><text class="cls-3" transform="translate(862.05 394.86)">Rapi</text><path class="cls-4" d="M488.91,362.3a8.3,8.3,0,0,1,10.29-1.17c1.44.88-2.69-2.88,72,71.71a8.31,8.31,0,0,1,0,11.71L536.89,478.4l-81.68-82.3Z"/><path class="cls-5" d="M593.12,307.14a90.77,90.77,0,0,1,36.59,7.61,8.32,8.32,0,0,0,3.33.7h94.4a16.63,16.63,0,1,1,0,33.25H659.62a8.32,8.32,0,0,0,0,16.63h67.82a33.22,33.22,0,0,0,33-37.6c47.45-48.78,54.14-55.63,54.43-56a16.63,16.63,0,1,1,25.39,21.48l-74.56,89.14a57.91,57.91,0,0,1-40.3,16.2H614.86A41.35,41.35,0,0,0,586,410.23l-7.06,6.82-65.13-65.12C529,323.38,557.59,307.14,593.12,307.14Z"/><path class="cls-6" d="M926.55,94.69V231q0,27.57-31.38,27.57T863.79,231V94.69h-31.7q-25.35,0-25.35-25.2T832.09,44.3H958.56q25.35,0,25.36,25.19t-25.36,25.2Z"/><path class="cls-7" d="M1025.28,220.53l-6,16.16q-8.09,21.56-26.55,21.55t-26.46-11.33q-8-11.32-8-20.36a42.52,42.52,0,0,1,4-17.75l65.3-143q9.82-21.55,30-21.55t30,21.55l65.61,143a42.08,42.08,0,0,1,4.12,17.91q0,9-7.76,20.28t-26.55,11.25q-18.78,0-26.86-21.55l-6-16.16Zm46-50.72-13.63-37.08L1044,169.81Z"/><path class="cls-8" d="M63.43,187.81V232q0,27.87-31.72,27.87T0,232V72.17Q0,44.3,31.71,44.3h71.76q26.75,0,44.77,21.06t17.29,50.13a76.84,76.84,0,0,1-19.94,50.69q-19.22,21.63-49.81,21.63Zm0-100.59v49.33H81.69q26.9,0,26.9-24.66T81.69,87.22Z"/><path class="cls-9" d="M312,168l31.71,41.64a32.27,32.27,0,0,1,7,19.86q0,10.58-12.81,20.42t-23.55,9.85q-10.73,0-20.34-13L242.5,177.88V232q0,27.87-31.72,27.87T179.07,232V71.52q0-27.85,31.71-27.86h71.76q26.58,0,44.2,20.42t17.62,43.8Q344.36,149.69,312,168ZM242.5,87.22v49.33h18.25q26.91,0,26.91-24.66T260.75,87.22Z"/><path class="cls-10" d="M396.1,259.88q-31.71,0-31.72-27.87V71.52q0-27.85,31.72-27.86H473q24.66,0,24.66,25.46T473,94.59H427.81v31.07h38.76q24.66,0,24.67,25.63t-24.67,25.63H427.81v32H473q24.66,0,24.66,25.47T473,259.88Z"/></g></g></svg>