<svg xmlns="http://www.w3.org/2000/svg" viewBox="0 0 1557.09 773.18"><defs><style>.cls-1,.cls-2,.cls-3,.cls-5{fill:none;stroke-miterlimit:10;}.cls-1{stroke:#146cb1;}.cls-1,.cls-2{stroke-width:66.91px;}.cls-2,.cls-3,.cls-5{stroke:#006bb1;}.cls-3{stroke-width:70.25px;}.cls-4{fill:#fff;}.cls-5{stroke-width:76.94px;}.cls-6{fill:#00662f;}.cls-7{fill:#98bf13;}.cls-8{fill:#006bb1;}</style></defs><title>Recurso 4</title><g id="Capa_2" data-name="Capa 2"><g id="Capa_1-2" data-name="Capa 1"><path class="cls-1" d="M1193.92,562.12l20.62,27.08a21,21,0,0,1,4.58,12.91q0,6.87-8.33,13.28t-15.31,6.41q-7,0-13.23-8.44l-33.53-44.78v35.2q0,18.12-20.62,18.12t-20.62-18.12V499.42q0-18.12,20.62-18.12h46.65q17.3,0,28.75,13.28T1215,523.07Q1215,550.25,1193.92,562.12Zm-45.2-52.49v32.08h11.87q17.49,0,17.5-16t-17.5-16Z"/><path class="cls-1" d="M1270.47,597.11l-4,10.63q-5.31,14.16-17.45,14.16t-17.39-7.45q-5.26-7.44-5.26-13.38a27.82,27.82,0,0,1,2.61-11.66l42.9-93.94q6.46-14.16,19.69-14.17t19.68,14.17l43.12,93.94a27.8,27.8,0,0,1,2.71,11.77q0,5.93-5.11,13.33t-17.44,7.39q-12.35,0-17.66-14.16l-4-10.63Zm30.2-33.32-9-24.37-9,24.37Z"/><path class="cls-1" d="M1407.21,575v28.75q0,18.12-20.62,18.12T1366,603.78V499.84q0-18.12,20.62-18.12h46.65q17.4,0,29.11,13.69T1473.6,528a49.94,49.94,0,0,1-13,33Q1448.13,575,1428.25,575Zm0-65.4v32.08h11.87q17.51,0,17.5-16t-17.5-16Z"/><path class="cls-1" d="M1523.64,603.78q0,18.12-20.62,18.12t-20.62-18.12V499.42q0-18.12,20.62-18.12t20.62,18.12Z"/><path class="cls-2" d="M664.46,597a9.19,9.19,0,0,1,11.41-1.23c1.59,1-3-3.21,79.23,79.93a9.23,9.23,0,0,1,0,13L716.77,726,626.9,634.22Z"/><path class="cls-2" d="M780.26,536.69a100.51,100.51,0,0,1,40.48,8.7,9.32,9.32,0,0,0,3.68.79l104.55.68a18.41,18.41,0,0,1-.24,36.82l-75.11-.48a9.21,9.21,0,1,0-.12,18.41l75.11.48a36.79,36.79,0,0,0,36.77-41.4c52.9-53.68,60.36-61.22,60.68-61.59a18.41,18.41,0,1,1,28,24l-83.21,98.18a64.14,64.14,0,0,1-44.74,17.66l-122.39-.8a45.84,45.84,0,0,0-32,12.7l-7.87,7.5-71.66-72.58C709.17,554.22,740.92,536.43,780.26,536.69Z"/><path class="cls-3" d="M117.1,330v57.13q0,36-41,36t-41-36V180.57q0-36,41-36h92.74q34.56,0,57.85,27.23t22.36,64.78q-.93,37.57-25.77,65.52T158.91,330Zm0-130v63.75h23.59q34.78,0,34.78-31.87T140.69,200Z"/><path class="cls-3" d="M438.36,304.36l41,53.82q9.12,12,9.11,25.66t-16.56,26.4Q455.33,423,441.47,423T415.18,406.2l-66.66-89v70q0,36-41,36t-41-36V179.74q0-36,41-36h92.73q34.37,0,57.13,26.39t22.77,56.61Q480.17,280.76,438.36,304.36ZM348.52,200v63.75h23.6q34.77,0,34.78-31.87T372.12,200Z"/><path class="cls-3" d="M547,423.17q-41,0-41-36V179.74q0-36,41-36h99.36q31.88,0,31.88,32.91t-31.88,32.91H588v40.16h50.09q31.88,0,31.88,33.12T638.11,316H588v41.4h58.37q31.88,0,31.88,32.91t-31.88,32.91Z"/><path class="cls-4" d="M117.1,330v57.13q0,36-41,36t-41-36V180.57q0-36,41-36h92.74q34.56,0,57.85,27.23t22.36,64.78q-.93,37.57-25.77,65.52T158.91,330Zm0-130v63.75h23.59q34.78,0,34.78-31.87T140.69,200Z"/><path class="cls-4" d="M438.36,304.36l41,53.82q9.12,12,9.11,25.66t-16.56,26.4Q455.33,423,441.47,423T415.18,406.2l-66.66-89v70q0,36-41,36t-41-36V179.74q0-36,41-36h92.73q34.37,0,57.13,26.39t22.77,56.61Q480.17,280.76,438.36,304.36ZM348.52,200v63.75h23.6q34.77,0,34.78-31.87T372.12,200Z"/><path class="cls-4" d="M547,423.17q-41,0-41-36V179.74q0-36,41-36h99.36q31.88,0,31.88,32.91t-31.88,32.91H588v40.16h50.09q31.88,0,31.88,33.12T638.11,316H588v41.4h58.37q31.88,0,31.88,32.91t-31.88,32.91Z"/><path class="cls-3" d="M1182.11,209.55v178q0,36-41,36t-41-36v-178h-41.4q-33.12,0-33.12-32.91t33.12-32.91h165.18q33.12,0,33.12,32.91t-33.12,32.91Z"/><path class="cls-3" d="M1311.07,373.91,1303.2,395q-10.54,28.16-34.67,28.15T1234,408.37q-10.47-14.79-10.46-26.6a55.37,55.37,0,0,1,5.18-23.18L1314,171.88q12.83-28.15,39.12-28.15t39.12,28.15l85.7,186.71a55.07,55.07,0,0,1,5.38,23.39q0,11.81-10.14,26.5t-34.67,14.69q-24.54,0-35.09-28.15l-7.86-21.11Zm60-66.24-17.8-48.44-17.8,48.44Z"/><path class="cls-4" d="M1182.11,209.55v178q0,36-41,36t-41-36v-178h-41.4q-33.12,0-33.12-32.91t33.12-32.91h165.18q33.12,0,33.12,32.91t-33.12,32.91Z"/><path class="cls-4" d="M1311.07,373.91,1303.2,395q-10.54,28.16-34.67,28.15T1234,408.37q-10.47-14.79-10.46-26.6a55.37,55.37,0,0,1,5.18-23.18L1314,171.88q12.83-28.15,39.12-28.15t39.12,28.15l85.7,186.71a55.07,55.07,0,0,1,5.38,23.39q0,11.81-10.14,26.5t-34.67,14.69q-24.54,0-35.09-28.15l-7.86-21.11Zm60-66.24-17.8-48.44-17.8,48.44Z"/><path class="cls-4" d="M1193.92,562.12l20.62,27.08a21,21,0,0,1,4.58,12.91q0,6.87-8.33,13.28t-15.31,6.41q-7,0-13.23-8.44l-33.53-44.78v35.2q0,18.12-20.62,18.12t-20.62-18.12V499.42q0-18.12,20.62-18.12h46.65q17.3,0,28.75,13.28T1215,523.07Q1215,550.25,1193.92,562.12Zm-45.2-52.49v32.08h11.87q17.49,0,17.5-16t-17.5-16Z"/><path class="cls-4" d="M1270.47,597.11l-4,10.63q-5.31,14.16-17.45,14.16t-17.39-7.45q-5.26-7.44-5.26-13.38a27.82,27.82,0,0,1,2.61-11.66l42.9-93.94q6.46-14.16,19.69-14.17t19.68,14.17l43.12,93.94a27.8,27.8,0,0,1,2.71,11.77q0,5.93-5.11,13.33t-17.44,7.39q-12.35,0-17.66-14.16l-4-10.63Zm30.2-33.32-9-24.37-9,24.37Z"/><path class="cls-4" d="M1407.21,575v28.75q0,18.12-20.62,18.12T1366,603.78V499.84q0-18.12,20.62-18.12h46.65q17.4,0,29.11,13.69T1473.6,528a49.94,49.94,0,0,1-13,33Q1448.13,575,1428.25,575Zm0-65.4v32.08h11.87q17.51,0,17.5-16t-17.5-16Z"/><path class="cls-4" d="M1523.64,603.78q0,18.12-20.62,18.12t-20.62-18.12V499.42q0-18.12,20.62-18.12t20.62,18.12Z"/><path id="_Trazado_compuesto_" data-name="&lt;Trazado compuesto&gt;" class="cls-5" d="M873.55,233.41c-32.51-8-55.14-13.67-65.79-26.85-4.6-5.62-7-12.65-7-21.78-.06-20.75,14.54-37.31,49.36-37.41a99.12,99.12,0,0,1,15.43,1.08c26.67,4,41,19.35,45.78,42.1l69.55-19.13c-9.4-35.72-31.47-60.49-65.16-73.45a154.37,154.37,0,0,0-35.23-8.71l-.15-50.68-60.47.18L820,88.85c-59.2,8.11-94.54,42.41-94.37,99.8.1,34,12,55.89,29.59,70.76,17.14,14.48,39.66,22.27,61.71,27.91,45.86,12.07,89.2,15.63,89.31,54.73.08,26.23-20,39.11-48.73,39.2-40.92.12-60.54-24.85-64.27-50.49l-72.61,19.76c11.18,61,58.27,84.12,105.31,90.08l.14,50,60.47-.17-.15-50.06c58.85-8.68,98.35-42.64,98.6-101.83a9.21,9.21,0,0,0,0-1C984.81,261.8,921.85,245.51,873.55,233.41Z"/><g id="_Grupo_" data-name="&lt;Grupo&gt;"><path id="_Trazado_compuesto_2" data-name="&lt;Trazado compuesto&gt;" class="cls-6" d="M902.79,456.71l.14,50.08-60.46.18-16.39-16.3,16.24-33.78c-47-6-94.13-29-105.3-90.07l56.22-36.06,16.39,16.3c3.74,25.64,23.36,50.62,64.28,50.5,28.7-.09,48.82-13,48.74-39.23-.12-39.09-43.49-42.62-89.33-54.7C788.71,292.16,742.24,272.14,742,205c-.17-57.4,35.15-91.71,94.36-99.82L819.86,38.76l60.46-.17,16.4,16.29.15,50.69c53.76,7.17,88,35.16,100.39,82.15L927.7,206.86l-16.4-16.3,9.19-2.54c-9.51-15.49-26.94-24.42-54-24.34-34.81.1-49.42,16.63-49.36,37.39.09,30.54,26.37,37.18,72.82,48.65,48.28,12.07,111.23,28.37,111.46,104.1C1001.59,413.67,962,448,902.79,456.71Z"/><path id="_Trazado_compuesto_3" data-name="&lt;Trazado compuesto&gt;" class="cls-7" d="M873.55,233.41c-32.51-8-55.14-13.67-65.79-26.85-4.6-5.62-7-12.65-7-21.78-.06-20.75,14.54-37.31,49.36-37.41a99.12,99.12,0,0,1,15.43,1.08c26.67,4,41,19.35,45.78,42.1l69.55-19.13c-9.4-35.72-31.47-60.49-65.16-73.45a154.37,154.37,0,0,0-35.23-8.71l-.15-50.68-60.47.18L820,88.85c-59.2,8.11-94.54,42.41-94.37,99.8.1,34,12,55.89,29.59,70.76,17.14,14.48,39.66,22.27,61.71,27.91,45.86,12.07,89.2,15.63,89.31,54.73.08,26.23-20,39.11-48.73,39.2-40.92.12-60.54-24.85-64.27-50.49l-72.61,19.76c11.18,61,58.27,84.12,105.31,90.08l.14,50,60.47-.17-.15-50.06c58.85-8.68,98.35-42.64,98.6-101.83a9.21,9.21,0,0,0,0-1C984.81,261.8,921.85,245.51,873.55,233.41Z"/></g><ellipse class="cls-8" cx="852.67" cy="337.91" rx="25.9" ry="17.54"/><circle class="cls-8" cx="858.3" cy="190.93" r="22.63"/><path class="cls-8" d="M669.51,223.5s21.53,67.07,14.9,105.16S767.21,303,767.21,303,705.94,233.44,701,206.94,669.51,223.5,669.51,223.5Z"/><path class="cls-8" d="M982.51,435.13s60.06,35.54,115.07,0c0,0-26.24-162.5-22-196.36s-55-8.46-64.33-31.31-45.7-10.16-54.16-5.08-11.85,21.16.84,25.39,69.4,95.64,51.63,147.27S982.51,435.13,982.51,435.13Z"/><polygon class="cls-8" points="1201.91 227.64 1201.91 345.22 1272.29 227.64 1201.91 227.64"/><path class="cls-7" d="M780.26,534.65a100.51,100.51,0,0,1,40.48,8.7,9,9,0,0,0,3.68.79l104.55.68a18.41,18.41,0,0,1-.24,36.82l-75.11-.48a9.21,9.21,0,1,0-.12,18.41l75.11.48a36.79,36.79,0,0,0,36.77-41.4c52.9-53.68,60.36-61.22,60.68-61.59a18.41,18.41,0,1,1,28,24l-83.21,98.18a64.09,64.09,0,0,1-44.74,17.66l-122.39-.79a45.75,45.75,0,0,0-32,12.7l-7.87,7.5-71.66-72.59C709.17,552.18,740.92,534.4,780.26,534.65Z"/><path class="cls-7" d="M664.46,595a9.17,9.17,0,0,1,11.41-1.22c1.59,1-3-3.22,79.23,79.92a9.23,9.23,0,0,1,0,13l-38.29,37.24L626.9,632.18Z"/><path class="cls-8" d="M1156.37,442.73s60,60.2,80.73,47.48c5.38-3.32,48.44-52.53,48.44-52.53l-83.63-36.32Z"/><path class="cls-8" d="M1285.54,442.73s59.9,49.16,80.59,36.44c5.38-3.32,60.72-28.25,60.72-28.25-20.47-38.22-65.68-60.53-95.77-49.56Z"/></g></g></svg>