<svg xmlns="http://www.w3.org/2000/svg" viewBox="0 0 1963.21 783.09"><defs><style>.cls-1,.cls-2{fill:#fff;}.cls-2{font-size:233.32px;font-family:SymphonyBlack, Symphony Black;}</style></defs><title>Recurso 3</title><g id="Capa_2" data-name="Capa 2"><g id="Capa_1-2" data-name="Capa 1"><path class="cls-1" d="M1066.78,415.28c-50.14-6.51-100.27-31.28-112-96.37l77.48-20.84c3.9,27.34,24.74,54,68.37,54,30.62,0,52.08-13.67,52.08-41.64,0-41.68-46.2-45.61-95-58.62-23.49-6.09-47.48-14.46-65.71-30-18.69-15.91-31.33-39.32-31.33-75.53,0-61.2,37.79-97.66,100.93-106.11V.74c-6.74,1-13.4,2.32-19.94,3.92A231.83,231.83,0,0,0,871.86,174.42,227,227,0,0,0,866,211.31c-.49,6-.71,12.08-.71,18.23q0,10,.87,19.83a229.63,229.63,0,0,0,30,95.74A232.22,232.22,0,0,0,1024,449.32a229.1,229.1,0,0,0,42.81,9.71Z"/><path class="cls-1" d="M1316.51,156.78A232.11,232.11,0,0,0,1212.27,28.94,229.45,229.45,0,0,0,1126,0V40.85a164.09,164.09,0,0,1,37.54,9.4c35.88,13.93,59.34,40.4,69.24,78.52L1158.59,149c-5-24.28-20.26-40.65-48.68-45a106.64,106.64,0,0,0-16.45-1.2c-37.12,0-52.75,17.61-52.75,39.73,0,9.74,2.53,17.24,7.42,23.25,11.31,14.08,35.43,20.17,70.06,28.83,51.46,13.06,118.54,30.62,118.54,111.38a10.57,10.57,0,0,1,0,1.12c-.45,63.1-42.67,99.19-105.44,108.26v43.05c107.5-16.09,190.78-105.95,196.56-216.46.26-4.09.36-8.21.36-12.33A231.37,231.37,0,0,0,1316.51,156.78Z"/><text class="cls-2" transform="translate(1434.82 644.05)">Rapi</text><path class="cls-1" d="M813.76,589.85a13.83,13.83,0,0,1,17.14-2c2.39,1.46-4.49-4.8,119.84,119.35a13.86,13.86,0,0,1,.07,19.5l-57.19,56.34-136-137Z"/><path class="cls-1" d="M987.21,498a151.08,151.08,0,0,1,60.91,12.68,13.76,13.76,0,0,0,5.54,1.16h157.13a27.67,27.67,0,1,1,0,55.34H1097.9a13.84,13.84,0,1,0,0,27.67h112.89a55.4,55.4,0,0,0,55.34-55.34,54.43,54.43,0,0,0-.49-7.23c79-81.19,90.12-92.6,90.59-93.16a27.68,27.68,0,1,1,42.26,35.75l-124.1,148.36a96.32,96.32,0,0,1-67.06,27H1023.39a68.82,68.82,0,0,0-48,19.4L963.6,681,855.21,572.59C880.54,525.06,928.08,498,987.21,498Z"/><path class="cls-1" d="M1542.18,144.43V371.28q0,45.9-52.23,45.9t-52.23-45.9V144.43H1385q-42.21,0-42.21-41.94T1385,60.55h210.49q42.21,0,42.21,41.94t-42.21,41.94Z"/><path class="cls-1" d="M1706.51,353.87l-10,26.91q-13.46,35.87-44.18,35.87t-44-18.86q-13.32-18.85-13.32-33.89a70.68,70.68,0,0,1,6.59-29.55L1710.21,96.42q16.35-35.86,49.85-35.87t49.86,35.87l109.2,237.93a70.25,70.25,0,0,1,6.86,29.81q0,15-12.93,33.76t-44.18,18.73q-31.26,0-44.71-35.87l-10-26.91Zm76.5-84.41-22.68-61.72-22.69,61.72Z"/><path class="cls-1" d="M105.57,299.41V373q0,46.39-52.78,46.39T0,373v-266Q0,60.55,52.79,60.55H172.22q44.5,0,74.51,35.06t28.79,83.44q-1.2,48.39-33.19,84.37t-82.91,36Zm0-167.41v82.11H136q44.79,0,44.79-41.06T136,132Z"/><path class="cls-1" d="M519.32,266.36l52.78,69.31q11.73,15.46,11.73,33.06t-21.32,34q-21.33,16.39-39.19,16.39t-33.86-21.59L403.62,282.89V373q0,46.39-52.79,46.39T298.05,373V105.87q0-46.4,52.78-46.39H470.27q44.25,0,73.58,34t29.32,72.92Q573.17,236,519.32,266.36ZM403.62,132v82.11H434q44.79,0,44.79-41.06T434,132Z"/><path class="cls-1" d="M659.28,419.38q-52.78,0-52.78-46.39V105.87q0-46.4,52.78-46.39h128q41.06,0,41.06,42.39t-41.06,42.39H712.07V196h64.51q41.05,0,41.06,42.65t-41.06,42.66H712.07V334.6h75.17q41.06,0,41.06,42.39t-41.06,42.39Z"/></g></g></svg>