<?xml version="1.0" encoding="utf-8"?>
<!-- Generator: Adobe Illustrator 22.1.0, SVG Export Plug-In . SVG Version: 6.00 Build 0)  -->
<svg version="1.1" id="Capa_1" xmlns="http://www.w3.org/2000/svg" xmlns:xlink="http://www.w3.org/1999/xlink" x="0px" y="0px"
	 viewBox="0 0 944 478.4" style="enable-background:new 0 0 944 478.4;" xml:space="preserve">
<style type="text/css">
	.st0{fill:#F3AA16;stroke:#00662F;stroke-width:40.8915;stroke-miterlimit:10;}
	.st1{fill:none;stroke:#00662F;stroke-width:40.8915;stroke-miterlimit:10;}
	.st2{font-family:'Insaniburger';}
	.st3{font-size:261.7057px;}
	.st4{fill:#FCEC2A;}
	.st5{fill:#FFFFFF;}
	.st6{fill:#00662F;}
	.st7{font-size:188.101px;}
	.st8{fill:#F3CC2F;stroke:#00662F;stroke-width:49.0698;stroke-miterlimit:10;}
	.st9{fill:#CD6915;}
	.st10{fill:#F3CC2F;}
	.st11{opacity:0.5;fill:#F2E393;}
	.st12{opacity:0.2;clip-path:url(#SVGID_2_);}
	.st13{fill:#F4AC23;}
	.st14{fill:#F2E393;}
	.st15{opacity:0.2;clip-path:url(#SVGID_4_);}
</style>
<title>Recurso 2</title>
<g>
	<g>
		<path class="st0" d="M409.9,370.2c1.9-1.9,4.8-2.2,7-0.8c1,0.6-1.8-2,48.9,49.3c2.3,2.3,2.1,5.9,0,8l-23.6,23l-55.5-56.6
			L409.9,370.2z"/>
		<path class="st0" d="M481.4,332.9c8.7,0.1,17.1,1.9,25,5.4c0.7,0.3,1.5,0.5,2.3,0.5l64.5,0.4c6.2,0,11.3,5.1,11.3,11.4
			c0,6.3-5.2,11.3-11.4,11.3l-46.4-0.3c-3.1,0-5.7,2.5-5.7,5.6c0,3.1,2.5,5.7,5.6,5.7l46.4,0.3c12.5,0.1,22.8-10.1,22.9-22.6
			c0-1-0.1-2-0.2-3c32.7-33.1,37.3-37.8,37.5-38c4.1-4.8,11.3-5.3,16-1.3c4.8,4.1,5.3,11.3,1.2,16.1L599,385.1
			c-7.5,7.1-17.3,11-27.6,10.9l-75.6-0.5c-7.4,0-14.4,2.7-19.8,7.8l-4.9,4.6L427,363.2C437.5,343.7,457.1,332.7,481.4,332.9z"/>
	</g>
	<text transform="matrix(1 0 0 1 15 263.5908)" class="st1 st2 st3">PRE</text>
	<g>
		<path class="st4" d="M409.9,370.2c1.9-1.9,4.8-2.2,7-0.8c1,0.6-1.8-2,48.9,49.3c2.3,2.3,2.1,5.9,0,8l-23.6,23l-55.5-56.6
			L409.9,370.2z"/>
		<path class="st4" d="M481.4,332.9c8.7,0.1,17.1,1.9,25,5.4c0.7,0.3,1.5,0.5,2.3,0.5l64.5,0.4c6.2,0,11.3,5.1,11.3,11.4
			c0,6.3-5.2,11.3-11.4,11.3l-46.4-0.3c-3.1,0-5.7,2.5-5.7,5.6c0,3.1,2.5,5.7,5.6,5.7l46.4,0.3c12.5,0.1,22.8-10.1,22.9-22.6
			c0-1-0.1-2-0.2-3c32.7-33.1,37.3-37.8,37.5-38c4.1-4.8,11.3-5.3,16-1.3c4.8,4.1,5.3,11.3,1.2,16.1L599,385.1
			c-7.5,7.1-17.3,11-27.6,10.9l-75.6-0.5c-7.4,0-14.4,2.7-19.8,7.8l-4.9,4.6L427,363.2C437.5,343.7,457.1,332.7,481.4,332.9z"/>
	</g>
	<text transform="matrix(1 0 0 1 15 263.5908)" class="st5 st2 st3">PRE</text>
	<text transform="matrix(1 0 0 1 628.3701 263.5908)" class="st1 st2 st3">TA</text>
	<text transform="matrix(1 0 0 1 628.3701 263.5908)" class="st5 st2 st3">TA</text>
	<text transform="matrix(0.7 0 0 0.7 684.2578 385.875)" class="st6 st2 st7">rapi</text>
	<path id="XMLID_36_" class="st8" d="M539,145.7c-20.1-5-34-8.4-40.6-16.6c-2.8-3.5-4.3-7.8-4.3-13.4c0-12.8,9-23,30.5-23.1
		c3.4,0,6.6,0.2,9.5,0.7c16.5,2.5,25.3,11.9,28.3,26l42.9-11.8c-5.8-22.1-19.4-37.3-40.2-45.3c-6.5-2.5-13.8-4.3-21.8-5.4l-0.1-31.3
		l-37.3,0.1l0.1,30.9c-36.5,5-58.4,26.2-58.3,61.6c0.1,21,7.4,34.5,18.3,43.7c10.6,8.9,24.5,13.7,38.1,17.2
		c28.3,7.4,55.1,9.6,55.1,33.8c0,16.2-12.4,24.1-30.1,24.2c-25.3,0.1-37.4-15.3-39.7-31.2L444.6,218c6.9,37.7,36,51.9,65,55.6
		l0.1,30.9l37.3-0.1l-0.1-30.9c36.3-5.4,60.7-26.3,60.9-62.9c0-0.2,0-0.4,0-0.6C607.7,163.2,568.8,153.1,539,145.7z"/>
	<g>
		<g id="XMLID_31_">
			<g>
				<path id="XMLID_59_" class="st9" d="M557,283.5l0.1,30.9l-37.3,0.1l-10.1-10.1l10-20.9c-29-3.7-58.1-17.9-65-55.6l34.7-22.3
					l10.1,10.1c2.3,15.8,14.4,31.2,39.7,31.2c17.7-0.1,30.1-8,30.1-24.2c-0.1-24.1-26.8-26.3-55.1-33.8
					c-27.5-7.1-56.2-19.4-56.4-60.9c-0.1-35.4,21.7-56.6,58.3-61.6l-10.2-41l37.3-0.1l10.1,10.1l0.1,31.3
					c33.2,4.4,54.4,21.7,62,50.7l-42.9,11.8l-10.1-10.1l5.7-1.6c-5.9-9.6-16.6-15.1-33.3-15c-21.5,0.1-30.5,10.3-30.5,23.1
					c0.1,18.9,16.3,22.9,45,30c29.8,7.5,68.7,17.5,68.8,64.3C618,257,593.6,278.1,557,283.5z"/>
				<path id="XMLID_57_" class="st10" d="M539,145.7c-20.1-5-34-8.4-40.6-16.6c-2.8-3.5-4.3-7.8-4.3-13.4c0-12.8,9-23,30.5-23.1
					c3.4,0,6.6,0.2,9.5,0.7c16.5,2.5,25.3,11.9,28.3,26l42.9-11.8c-5.8-22.1-19.4-37.3-40.2-45.3c-6.5-2.5-13.8-4.3-21.8-5.4
					l-0.1-31.3l-37.3,0.1l0.1,30.9c-36.5,5-58.4,26.2-58.3,61.6c0.1,21,7.4,34.5,18.3,43.7c10.6,8.9,24.5,13.7,38.1,17.2
					c28.3,7.4,55.1,9.6,55.1,33.8c0,16.2-12.4,24.1-30.1,24.2c-25.3,0.1-37.4-15.3-39.7-31.2L444.6,218c6.9,37.7,36,51.9,65,55.6
					l0.1,30.9l37.3-0.1l-0.1-30.9c36.3-5.4,60.7-26.3,60.9-62.9c0-0.2,0-0.4,0-0.6C607.7,163.2,568.8,153.1,539,145.7z"/>
			</g>
		</g>
		<path id="XMLID_29_" class="st11" d="M565,62.1l-31,31.2c-2.9-0.4-6.1-0.7-9.5-0.7C503,92.6,494,102.8,494,115.7
			c0,5.6,1.5,10,4.3,13.4l-32.4,32.6c-10.8-9.2-18.2-22.7-18.3-43.7c-0.1-35.4,21.7-56.6,58.3-61.6l-0.1-28.8l2.1-2.1l35.2-0.1
			l0.1,31.3C551.2,57.7,558.5,59.5,565,62.1z"/>
		<path id="XMLID_27_" class="st11" d="M607.8,210.6c-0.2,36.5-24.5,57.5-60.9,62.9l0.1,30.9l-32.5,0.1L607.8,210.6z"/>
	</g>
	<ellipse class="st6" cx="526.1" cy="210.2" rx="16" ry="10.8"/>
	<circle class="st6" cx="529.6" cy="119.4" r="6.7"/>
	<path class="st6" d="M413,139.6c0,0,13.3,41.4,9.2,64.9c-4.1,23.5,51.1-15.8,51.1-15.8s-37.8-42.9-40.9-59.3S413,139.6,413,139.6z"
		/>
	<path class="st6" d="M607.8,270.4c0,0,36.3,21.5,69.5,0c0,0-15.8-98.1-13.3-118.6s-33.2-5.1-38.8-18.9c-5.6-13.8-27.6-6.1-32.7-3.1
		c-5.1,3.1-7.2,12.8,0.5,15.3c7.7,2.6,41.9,57.8,31.2,88.9C613.4,265.3,607.8,270.4,607.8,270.4z"/>
	<polygon class="st6" points="741.7,142.1 741.7,214.7 785.1,142.1 	"/>
	<g>
		<defs>
			<path id="SVGID_1_" d="M481.4,331.6c8.7,0.1,17.1,1.9,25,5.4c0.7,0.3,1.5,0.5,2.3,0.5l64.5,0.4c6.2,0,11.3,5.1,11.3,11.4
				c0,6.3-5.2,11.3-11.4,11.3l-46.4-0.3c-3.1,0-5.7,2.5-5.7,5.6c0,3.1,2.5,5.7,5.6,5.7L573,372c12.5,0.1,22.8-10.1,22.9-22.6
				c0-1-0.1-2-0.2-3c32.7-33.1,37.3-37.8,37.5-38c4.1-4.8,11.3-5.3,16-1.3c4.8,4.1,5.3,11.3,1.2,16.1L599,383.8
				c-7.5,7.1-17.3,11-27.6,10.9l-75.6-0.5c-7.4,0-14.4,2.7-19.8,7.8l-4.9,4.6L427,361.9C437.5,342.5,457.1,331.5,481.4,331.6z"/>
		</defs>
		<use xlink:href="#SVGID_1_"  style="overflow:visible;fill:#F4B728;"/>
		<clipPath id="SVGID_2_">
			<use xlink:href="#SVGID_1_"  style="overflow:visible;"/>
		</clipPath>
		<g class="st12">
			<path id="XMLID_25_" class="st13" d="M765.4,215.6L413.5,567.5c-16.3-16.1-30.3-34.5-41.6-54.6L710.8,174
				C730.9,185.3,749.3,199.3,765.4,215.6z"/>
			<path id="XMLID_23_" class="st14" d="M721.9,180.6L378.5,523.9c-2.3-3.6-4.5-7.3-6.6-11.1c-9.8-17.3-17.5-36-22.9-55.6v0
				L655.2,151c19.6,5.4,38.2,13.2,55.6,22.9C714.6,176.1,718.2,178.3,721.9,180.6z"/>
			<path id="XMLID_21_" class="st14" d="M788.7,296.6L494.2,591.1c-19.3-4-37.9-10.3-55.3-18.5l331.3-331.3
				C778.4,258.7,784.7,277.2,788.7,296.6z"/>
			<path id="XMLID_19_" class="st14" d="M635.1,146.4L344.3,437.2c-1.3-6.8-2.3-13.7-3-20.7l273.1-273.1
				C621.4,144.1,628.3,145.1,635.1,146.4z"/>
		</g>
	</g>
	<g>
		<defs>
			<path id="SVGID_3_" d="M409.9,368.9c1.9-1.9,4.8-2.2,7-0.8c1,0.6-1.8-2,48.9,49.3c2.3,2.3,2.1,5.9,0,8l-23.6,23l-55.5-56.6
				L409.9,368.9z"/>
		</defs>
		<use xlink:href="#SVGID_3_"  style="overflow:visible;fill:#F4B728;"/>
		<clipPath id="SVGID_4_">
			<use xlink:href="#SVGID_3_"  style="overflow:visible;"/>
		</clipPath>
		<g class="st15">
			<path id="XMLID_17_" class="st13" d="M765.4,215.6L413.5,567.5c-16.3-16.1-30.3-34.5-41.6-54.6L710.8,174
				C730.9,185.3,749.3,199.3,765.4,215.6z"/>
			<path id="XMLID_15_" class="st14" d="M721.9,180.6L378.5,523.9c-2.3-3.6-4.5-7.3-6.6-11.1c-9.8-17.3-17.5-36-22.9-55.6v0
				L655.2,151c19.6,5.4,38.2,13.2,55.6,22.9C714.6,176.1,718.2,178.3,721.9,180.6z"/>
			<path id="XMLID_13_" class="st14" d="M788.7,296.6L494.2,591.1c-19.3-4-37.9-10.3-55.3-18.5l331.3-331.3
				C778.4,258.7,784.7,277.2,788.7,296.6z"/>
			<path id="XMLID_1_" class="st14" d="M635.1,146.4L344.3,437.2c-1.3-6.8-2.3-13.7-3-20.7l273.1-273.1
				C621.4,144.1,628.3,145.1,635.1,146.4z"/>
		</g>
	</g>
</g>
</svg>
